<?xml version="1.0" encoding="UTF-8"?>
<svg id="Layer_2" data-name="Layer 2" xmlns="http://www.w3.org/2000/svg" viewBox="0 0 697.8 549.36">
  <defs>
    <style>
      .cls-1 {
        fill: #e77402;
      }
    </style>
  </defs>
  <g id="Layer_1-2" data-name="Layer 1">
    <g>
      <path class="cls-1" d="M542.47,233.59l-2,99c-57.44,84.21-195.76,64.56-246.82-16.68-15.63-24.86-22.3-52.18-28.66-80.33-3.13-3.18-22.15,6.27-27.33,7.7-31.03,8.59-75.52,9.2-83.24,47.86,17.82,59.31,99.62,44.71,110.12-11.5l2.9-.04c20.71,67.64,84.12,117.66,156.03,114.49l9,17.49-155.31-1.96-9.15-34.06c-26.05,24.81-56.35,37.7-92.05,42.02C97.02,427.13,6.61,404.4.42,311.14c-6.12-92.2,55.16-119.91,133.83-135.27,27.83-5.43,103.57-9.81,121.7-26.3,12.76-11.61,13.62-27.16,3.55-40.5-24.76-32.8-94.27-22.77-99.53,21.53H20.97c-5.18-39.43,17.32-78.45,50.2-98.8C132.82-6.36,269.37-7.66,336.99,14.57c123.05,40.45,48.78,157.42,91.12,238.88,28.18,54.21,101.75,44.42,114.36-19.86Z"/>
      <path d="M542.47,233.59c14.5-73.93-14.79-156.04-103.49-108.99l-14.51,16.98c-.61-8.58.78-18.09.04-26.54-2.9-32.94-13.91-65.97-40-88-2.63-2.22-17.59-8.97-17-12.84,55.33-24.83,141.54-20.04,171.92,40.92l4.03-1.03V10.59h149.5l2.56,5.44c-5.65,118.7,7.32,244.12-.08,362.05-8.78,139.76-108.49,177.16-234.53,170.57-67.07-3.51-144.94-25.81-172.15-93.85-3.66-9.14-9.46-24.89-6.8-34.2h150c7.66,13.88,22.68,32.52,38.33,36.88,66.15,18.41,77.72-80.83,70.17-124.88l2-99Z"/>
    </g>
  </g>
</svg>